# xmcd
#
# Track frame offsets: 
#        150
#        20714
#        42664
#        64936
#        76237
#        94248
#        120426
#        137408
#        156519
#        178019
#
# Disc length: 2572 seconds
#
# Revision: 0
# Processed by: cddbd v1.5.2PL0 Copyright (c) Steve Scherf et al.
# Submitted via: ExactAudioCopy v1.3
#
DISCID=860a0a0a
DTITLE=Shakey Jake Harris - The Devil's Harmonica
DYEAR=1987
DGENRE=Blues
TTITLE0=Sawed Off Shotgun
TTITLE1=Ragged And Dirty
TTITLE2=Love Is Strange
TTITLE3=Let Me Be Your Loverman
TTITLE4=Bad Luck Time
TTITLE5=My Blues Advice
TTITLE6=Family Blues
TTITLE7=What A Fool
TTITLE8=Remembering
TTITLE9=More Bad Luck
EXTD=
EXTT0=
EXTT1=
EXTT2=
EXTT3=
EXTT4=
EXTT5=
EXTT6=
EXTT7=
EXTT8=
EXTT9=
PLAYORDER=
